<svg width="207" height="152" viewBox="0 0 207 152" fill="none" xmlns="http://www.w3.org/2000/svg">
<path d="M207.321 60.2439H181.406V33.9219C181.406 29.8207 177.975 26.5073 173.728 26.5073H98.1417L69.995 0.509755C69.6369 0.186009 69.1658 0.00406175 68.6752 0H7.67857C3.43136 0 0 3.31341 0 7.41463V144.585C0 148.687 3.43136 152 7.67857 152H175.167C178.287 152 181.118 150.17 182.294 147.366L214.448 70.439C214.808 69.5585 215 68.6085 215 67.6585C215 63.5573 211.569 60.2439 207.321 60.2439ZM164.129 60.2439H41.7522C38.6328 60.2439 35.8013 62.0744 34.6256 64.878L17.2768 106.4V16.6829H62.5084L91.207 43.1902H164.129V60.2439Z" fill="#4F999E"/>
</svg>
