<svg width="331" height="100" viewBox="0 0 331 100" fill="none" xmlns="http://www.w3.org/2000/svg">
<line y1="-10" x2="100" y2="-10" transform="matrix(0 -1 -1 0 311 100)" stroke="#4F999E" stroke-width="20"/>
<line y1="-10" x2="100" y2="-10" transform="matrix(0 -1 -1 0 274 100)" stroke="#4F999E" stroke-width="20"/>
<line x1="321.078" y1="88.7583" x2="282.942" y2="7.23727" stroke="#4F999E" stroke-width="20"/>
<line x1="132" y1="100" x2="132" stroke="#4F999E" stroke-width="20"/>
<line x1="169" y1="100" x2="169" stroke="#4F999E" stroke-width="20"/>
<line x1="122" y1="10" x2="172" y2="10" stroke="#4F999E" stroke-width="20"/>
<line x1="124" y1="54" x2="174" y2="54" stroke="#4F999E" stroke-width="20"/>
<line x1="10" y1="100" x2="10" stroke="#4F999E" stroke-width="20"/>
<line y1="90" x2="50" y2="90" stroke="#4F999E" stroke-width="20"/>
<line x1="71" y1="100" x2="71" stroke="#4F999E" stroke-width="20"/>
<line x1="61" y1="90" x2="111" y2="90" stroke="#4F999E" stroke-width="20"/>
<line x1="61" y1="10" x2="111" y2="10" stroke="#4F999E" stroke-width="20"/>
<line x1="61" y1="50" x2="111" y2="50" stroke="#4F999E" stroke-width="20"/>
<g clip-path="url(#clip0_7_26)">
<path d="M200 100V0" stroke="#4F999E" stroke-width="20"/>
<path d="M190 10H240" stroke="#4F999E" stroke-width="20"/>
<path d="M190 54H240" stroke="#4F999E" stroke-width="20"/>
<path d="M237 50V0" stroke="#4F999E" stroke-width="20"/>
<path d="M253.737 97.3998L236.605 50.4263" stroke="#4F999E" stroke-width="20"/>
<path d="M248.222 99.5951C248.305 99.5951 248.449 99.5784 248.491 99.5406C248.511 99.5225 248.516 99.4945 248.508 99.4774C248.49 99.4397 248.407 99.4434 248.332 99.4517C248.2 99.4662 248.096 99.5779 247.994 99.6623C247.944 99.6877 247.893 99.7046 247.834 99.7173C247.801 99.7216 247.759 99.7216 247.716 99.7721" stroke="#4F999E" stroke-linecap="round"/>
<path d="M248.449 99.671C248.39 99.7044 248.273 99.7888 248.162 99.7974C247.843 99.8223 248.617 99.7721 248.865 99.7301C249.078 99.6941 249.366 99.6963 249.88 99.604C250.105 99.5636 250.252 99.5278 250.459 99.4941C250.633 99.4657 250.834 99.4267 251.129 99.4139C251.324 99.4054 251.525 99.3761 251.984 99.3633C252.201 99.3573 252.318 99.3255 252.717 99.3169C252.805 99.3151 252.479 99.3756 252.34 99.418C252.262 99.4417 252.192 99.4601 252.167 99.4895C252.002 99.6807 253.041 99.4692 253.262 99.4392C253.439 99.4152 253.574 99.4014 253.717 99.3886C253.911 99.3713 254.079 99.3508 254.24 99.338C254.42 99.3236 254.669 99.2663 254.859 99.2454C255.166 99.2116 255.319 99.2158 255.517 99.1738C255.662 99.1429 255.849 99.1232 256.131 99.0979C256.683 99.0484 256.877 98.9295 257.047 98.8661C257.215 98.8032 257.451 98.7019 257.616 98.6344C257.864 98.5327 258.134 98.4151 258.307 98.3435C258.564 98.2373 258.986 98.2042 259.163 98.1581C259.299 98.1226 259.399 98.0864 259.517 98.0652C259.643 98.0426 259.686 97.834 259.77 97.7199C259.847 97.6158 259.821 97.4966 259.792 97.4082C259.735 97.2362 259.426 97.2518 258.896 97.2307C258.702 97.2229 258.46 97.1931 258.239 97.1802C258.019 97.1674 257.827 97.1674 257.519 97.2132C257.212 97.2591 256.795 97.3509 256.555 97.4066C256.263 97.4741 256.163 97.5045 256.037 97.5338C255.568 97.643 255.135 97.9842 255.012 98.0692C255.004 98.0745 255.057 98.0778 255.329 97.9526C255.601 97.8274 256.102 97.577 256.406 97.4314C256.797 97.2436 256.971 97.1762 257.118 97.1005C257.252 97.0314 257.501 96.9238 257.854 96.7472C258.42 96.4643 258.581 96.4173 258.712 96.3625C258.83 96.3131 259.152 96.2074 259.436 96.1223C259.575 96.0807 259.702 96.0463 259.903 96.0003C260.609 95.8387 260.739 95.785 260.996 95.7806C261.212 95.7769 261.363 95.8518 261.451 95.8986C261.478 95.9126 261.514 95.9029 261.532 96.1992C261.549 96.4954 261.549 97.0879 261.545 97.4099C261.538 97.9335 261.54 98.2543 261.633 98.3639C261.764 98.5193 261.902 98.5663 261.991 98.6212C262.012 98.6342 262.004 98.6756 261.987 98.697C261.909 98.7969 261.702 98.7773 261.57 98.8068C261.442 98.8357 261.247 98.8531 260.723 98.9034C260.325 98.9417 259.657 98.9872 259.267 99.0213C258.785 99.0635 258.524 99.0893 258.234 99.0977C258.034 99.1034 257.874 99.1399 257.677 99.1524C257.131 99.1871 256.795 99.1991 256.648 99.1695C256.577 99.1554 256.433 99.1485 256.135 99.1232C255.68 99.0846 255.328 99.123 255.177 99.1356C255.026 99.1482 254.865 99.1566 254.309 99.2194C253.837 99.2728 252.976 99.3407 252.479 99.3919C251.872 99.4545 251.679 99.5023 251.423 99.5358C250.99 99.5925 250.667 99.6457 250.541 99.6499C250.203 99.661 249.866 99.6877 249.689 99.7046C249.545 99.7184 249.411 99.7552 249.114 99.7678C248.867 99.7783 248.424 99.7721 248.171 99.7763C247.868 99.7813 247.55 99.7974 247.129 99.8058C246.941 99.8308 246.856 99.848 246.797 99.8522C246.788 99.8563 246.821 99.8647 246.856 99.8733" stroke="#4F999E" stroke-width="5" stroke-linecap="round"/>
</g>
<defs>
<clipPath id="clip0_7_26">
<rect width="73" height="100" fill="white" transform="translate(190)"/>
</clipPath>
</defs>
</svg>
