<svg width="252" height="316" viewBox="0 0 252 316" fill="none" xmlns="http://www.w3.org/2000/svg">
<circle cx="126" cy="179" r="126" fill="#4F999E"/>
<circle cx="126" cy="199" r="76" fill="#034488"/>
<line x1="158.27" y1="260.223" x2="224.593" y2="304.958" stroke="#4F999E" stroke-width="26"/>
<g clip-path="url(#clip0_80_2)">
<path d="M215.285 79.436C215.033 80.0399 214.606 80.4754 214.005 80.7426C213.404 81.0098 212.818 81.0242 212.248 80.786C211.678 80.5477 211.277 80.1209 211.045 79.5055C210.813 78.89 210.823 78.2804 211.076 77.6765L223.337 48.3416L194.964 50.97C192.821 51.1659 190.544 50.7598 188.132 49.7518C185.721 48.7437 183.832 47.4086 182.466 45.7464L163.108 22.1849C161.786 20.5411 161.392 19.0804 161.926 17.803C162.46 16.5255 163.767 15.8029 165.846 15.6351L196.213 12.8579C198.355 12.662 200.632 13.0681 203.044 14.0761C205.456 15.0842 207.345 16.4193 208.71 18.0815L228.069 41.643C229.229 43.0558 229.655 44.3796 229.345 45.6142C229.369 45.679 229.352 45.781 229.294 45.9204L215.285 79.436ZM195.204 56.3092L210.724 54.8564L206.617 64.6811C205.782 66.6786 203.019 67.5289 198.327 67.232C193.635 66.9351 188.373 65.5678 182.541 63.1302C176.709 60.6925 172.039 57.9084 168.531 54.7779C165.023 51.6474 163.687 49.0834 164.522 47.086L168.628 37.2612L178.498 49.3261C179.863 50.9883 182.454 52.6167 186.268 54.2112C190.083 55.8058 193.062 56.5051 195.204 56.3092Z" fill="#4F999E"/>
</g>
<defs>
<clipPath id="clip0_80_2">
<rect width="73" height="58" fill="white" transform="translate(169.368) rotate(22.6839)"/>
</clipPath>
</defs>
</svg>
